<svg display="none" xmlns="http://www.w3.org/2000/svg">
  <symbol id="instagram" viewBox="0 0 28 28">
    <path
      d="M15.36 0.666992C17.76 0.666992 18.267 0.693992 19.493 0.746992C20.906 0.813992 21.88 1.03999 22.72 1.37399C23.6 1.70699 24.347 2.17399 25.08 2.90699C25.827 3.63999 26.28 4.38699 26.627 5.26699C26.96 6.10699 27.174 7.07999 27.24 8.50699C27.307 9.77399 27.32 10.267 27.32 12.934V15.067C27.32 17.734 27.307 18.227 27.24 19.494C27.217 20.659 26.994 21.764 26.604 22.788L26.626 22.721C26.279 23.601 25.826 24.348 25.093 25.081C24.346 25.828 23.6 26.281 22.72 26.628C21.88 26.961 20.907 27.175 19.493 27.241C18.226 27.308 17.72 27.321 15.053 27.321H12.933C10.266 27.321 9.77302 27.308 8.49302 27.241C7.32802 27.218 6.22302 26.995 5.19902 26.605L5.26602 26.627C4.34302 26.274 3.55602 25.753 2.90702 25.094L2.90602 25.093C2.24002 24.441 1.71402 23.649 1.37402 22.764L1.35902 22.719C0.992025 21.763 0.769025 20.657 0.746025 19.502V19.492C0.693025 18.45 0.663025 17.229 0.663025 16.002C0.663025 15.776 0.664025 15.55 0.666025 15.325V15.359V12.626C0.666025 10.226 0.693025 9.71899 0.746025 8.49299C0.813025 7.07999 1.03902 6.10599 1.35902 5.26599C1.70602 4.38599 2.15902 3.63899 2.90602 2.90599C3.55102 2.23899 4.34002 1.71599 5.22302 1.38699L5.26602 1.37299C6.22102 1.00199 7.32603 0.773992 8.48102 0.746992H8.49302C9.72003 0.693992 10.226 0.666992 12.626 0.666992H15.36ZM15.387 3.06699H12.6C10.293 3.06699 9.80002 3.09399 8.60003 3.14699C7.30702 3.19999 6.60003 3.41399 6.13303 3.59999C5.50603 3.83999 5.06602 4.13299 4.60002 4.59999C4.13402 5.06699 3.84002 5.50699 3.60002 6.13299C3.42702 6.59999 3.20002 7.30599 3.14702 8.61299C3.09402 9.81299 3.06702 10.293 3.06702 12.613V15.386C3.06702 17.706 3.09402 18.186 3.14702 19.386C3.20002 20.679 3.41402 21.386 3.60002 21.853C3.84002 22.48 4.13302 22.92 4.60002 23.386C5.06702 23.852 5.50703 24.146 6.13303 24.386C6.60003 24.573 7.30602 24.786 8.61302 24.839C9.90602 24.906 10.373 24.919 13.253 24.919H14.733C17.626 24.919 18.08 24.906 19.386 24.839C20.679 24.786 21.386 24.572 21.853 24.386C22.48 24.146 22.92 23.853 23.386 23.386C23.852 22.919 24.146 22.479 24.386 21.853C24.573 21.386 24.786 20.68 24.839 19.386C24.906 18.079 24.919 17.626 24.919 14.733V13.266C24.919 10.373 24.906 9.90599 24.839 8.59899C24.786 7.30599 24.572 6.59899 24.386 6.13199C24.16 5.53099 23.819 5.01799 23.387 4.59999L23.386 4.59899C22.966 4.16599 22.454 3.82499 21.881 3.60799L21.853 3.59899C21.121 3.32299 20.275 3.15799 19.391 3.14599H19.386C18.358 3.09399 17.155 3.06399 15.944 3.06399C15.748 3.06399 15.552 3.06499 15.356 3.06599H15.386L15.387 3.06699ZM14 7.14699C17.781 7.14699 20.847 10.212 20.847 13.994C20.847 17.776 17.782 20.841 14 20.841C10.219 20.841 7.15302 17.776 7.15302 13.994C7.15302 10.212 10.218 7.14699 14 7.14699ZM14 9.54699C11.544 9.54699 9.55303 11.538 9.55303 13.994C9.55303 16.45 11.544 18.441 14 18.441C16.456 18.441 18.447 16.45 18.447 13.994C18.447 11.538 16.456 9.54699 14 9.54699ZM21.107 5.27999C21.991 5.27999 22.707 5.99599 22.707 6.87999C22.707 7.76399 21.991 8.47999 21.107 8.47999C20.223 8.47999 19.507 7.76399 19.507 6.87999C19.507 5.99599 20.223 5.27999 21.107 5.27999Z"
      fill="black"/>
  </symbol>
  <symbol id="facebook" viewBox="0 0 17 28">
    <path
      d="M5.04 27.333L5 15.666H0V10.666H5V7.33302C5 2.84002 7.787 0.666016 11.8 0.666016C13.72 0.666016 15.373 0.799016 15.853 0.866016V5.57302H13.066C10.893 5.57302 10.466 6.61302 10.466 8.13302V10.666H16.666L14.999 15.666H10.466V27.333H5.039H5.04Z"
      fill="black"/>
  </symbol>
  <symbol id="twitter" viewBox="0 0 28 22">
    <path
      d="M27.333 2.83998C26.333 3.33298 25.333 3.50698 24.16 3.66698C25.333 2.99998 26.16 1.99998 26.493 0.666984C25.488 1.27498 24.317 1.73798 23.07 1.98898L23 2.00098C21.969 0.986984 20.56 0.354984 19.004 0.333984H19C16.16 0.333984 13.667 2.84098 13.667 5.84098C13.667 6.33398 13.667 6.66798 13.84 7.00098C9.26203 6.82298 5.22103 4.66398 2.52903 1.36198L2.50703 1.33398C2.08203 2.05998 1.83103 2.93198 1.83103 3.86298C1.83103 3.97198 1.83403 4.08098 1.84103 4.18898L1.84003 4.17398C1.87403 6.05198 2.84903 7.69498 4.31303 8.65498L4.33403 8.66798C3.49403 8.66798 2.66703 8.33498 1.82703 8.00098C1.82703 10.668 3.66703 12.841 6.16003 13.334C5.66703 13.507 5.16003 13.507 4.66703 13.507C4.33403 13.507 4.00003 13.507 3.66703 13.334C4.33403 15.507 6.33403 17.174 8.84003 17.174C7.04003 18.629 4.72403 19.509 2.20303 19.509C2.13203 19.509 2.06103 19.508 1.99003 19.507H2.00103H0.66803C3.03303 21.016 5.90403 21.936 8.98403 22H9.00103C19.001 22 24.508 13.667 24.508 6.49298V5.82598C25.655 5.03598 26.601 4.03898 27.311 2.88198L27.335 2.83998H27.333Z"
      fill="black"/>
  </symbol>
  <symbol id="pinterest" viewBox="0 0 28 28">
    <path
      d="M14 0.666992C6.65699 0.693992 0.713989 6.65299 0.713989 14C0.713989 19.599 4.16599 24.393 9.05699 26.368L9.14599 26.4C9.01299 25.347 8.91899 23.733 9.18599 22.573L10.746 15.946C10.746 15.946 10.346 15.146 10.346 13.973C10.346 12.12 11.426 10.746 12.773 10.746C13.906 10.746 14.466 11.599 14.466 12.613C14.466 13.76 13.733 15.466 13.346 17.053C13.026 18.386 14.013 19.466 15.333 19.466C17.706 19.466 19.52 16.973 19.52 13.373C19.52 10.173 17.227 7.95999 13.947 7.95999C13.871 7.95599 13.783 7.95399 13.694 7.95399C10.505 7.95399 7.92099 10.539 7.92099 13.727C7.92099 13.729 7.92099 13.731 7.92099 13.733C7.92099 14.88 8.36099 16.106 8.90799 16.773C9.01499 16.906 9.02799 17.026 8.98799 17.16L8.61499 18.667C8.56199 18.907 8.41499 18.974 8.17499 18.854C6.49499 18.067 5.45499 15.654 5.45499 13.681C5.45499 9.48099 8.52199 5.62799 14.282 5.62799C18.895 5.62799 22.509 8.90799 22.509 13.321C22.509 17.921 19.602 21.614 15.576 21.614C14.243 21.614 12.963 20.907 12.536 20.081L11.696 23.241C11.265 24.578 10.704 25.739 10.008 26.804L10.042 26.748C11.212 27.12 12.558 27.335 13.953 27.335C21.317 27.335 27.286 21.365 27.286 14.002C27.286 6.65499 21.344 0.695992 14.004 0.668992H14.001L14 0.666992Z"
      fill="black"/>

  </symbol>
</svg>